# xmcd
#
# Track frame offsets: 
#        150
#        18534
#        40186
#        61814
#        81554
#        99555
#        124292
#        141162
#        157758
#        181885
#        201475
#        218852
#        233255
#
# Disc length: 3284 seconds
#
# Revision: 0
# Processed by: cddbd v1.5.2PL0 Copyright (c) Steve Scherf et al.
# Submitted via: ExactAudioCopy v1.0b3
#
DISCID=af0cd20d
DTITLE=Various Artist - Ngut Ngan Thuong Nho
DYEAR=1900
DGENRE=
TTITLE0=Duy Quang, Chau Dinh An - Dem chon dau vuot bien
TTITLE1=Thai Hien - Tam dong ca
TTITLE2=Chau Dinh An - Hen ngay gap em
TTITLE3=Julie - Neu con hoi
TTITLE4=Duy Quang - Chang le suot doi
TTITLE5=Chau Dinh An - Ngut ngan thuong nho
TTITLE6=Duy Quang, Chau Dinh An - Trai tu chu S
TTITLE7=Julie, Chau Dinh An - Da co chung toi
TTITLE8=Duy Quang - Vinh khuc Nguyen Quang Minh
TTITLE9=Chau Dinh An - Se co mai nay
TTITLE10=Thai Hien - Chung ta cung ve
TTITLE11=Chau Dinh An - Gio da den
TTITLE12=hoa tau - Tra lai em yeu
EXTD=
EXTT0=
EXTT1=
EXTT2=
EXTT3=
EXTT4=
EXTT5=
EXTT6=
EXTT7=
EXTT8=
EXTT9=
EXTT10=
EXTT11=
EXTT12=
PLAYORDER=
